<svg xmlns="http://www.w3.org/2000/svg" viewBox="0 0 1715 290" fill="#ffffff" role="img" aria-label="Energisa, PEE Programa de Eficiência Energética, ANEEL Agência Nacional de Energia Elétrica"><path d="M918.7 15.6c-.4.4-.7 58.7-.7 129.6V274h7l-.2-129.3-.3-129.2-2.5-.3c-1.4-.2-2.9 0-3.3.4m520.8.1c-38.4 4.6-69.5 33.3-77.9 72-7.6 34.8 11.1 67.8 43.6 76.7 4.6 1.3 11.8 1.6 39.1 1.6 29.6 0 33.6-.2 34.8-1.6 1.5-1.9 4.9-17.1 4.9-22.4 0-2-.5-4.1-1.2-4.8-.9-.9-6.8-1.2-20.6-1.2-12.1 0-20.1-.4-21.4-1.1-2.2-1.2-2.2-3.7.4-17.9 1.8-10.4.9-10 24.7-10 23.7-.1 24-.2 25.9-8.5 2-8.6 3.3-18.6 2.7-20.6-.6-1.8-1.9-1.9-21.5-1.9-24.8 0-24.2.2-22.8-10.2 1.7-12.6 3.2-17.2 5.8-18.5 1.8-.9 8.4-1.3 22.1-1.3 14.2 0 20-.3 21.3-1.3 1.9-1.4 2.9-5 5.1-17.7 2.2-12.9 4.4-12-31.9-11.9-16.6.1-31.4.4-33.1.6m150.1 1.5c-2 1.8-2.9 4.1-4.1 10.3-.8 4.4-1.5 9.2-1.5 10.6s-1 3.5-2.3 4.7c-2.2 2.1-3.2 2.2-22.9 2.2h-20.7l-2 2.7c-1.2 1.4-2.3 3.6-2.5 4.7-3.2 16.6-3.6 19.8-2.6 21.6 1 1.9 2.2 2 21.1 2 11.9 0 20.8.4 22 1 2.1 1.2 2.5 5.1.9 10.9-.5 2-1.2 5.8-1.5 8.5-.5 3.4-1.4 5.5-3.2 7.2-2.6 2.4-2.9 2.4-22.9 2.4-19.5 0-20.4.1-22.3 2.1-1.1 1.2-2.3 4.3-2.6 6.8-.4 2.5-1 6.8-1.6 9.4-.5 2.6-.9 6-.9 7.4 0 4.8 1.9 5.2 23.2 5.3 15.8 0 19.9.3 21.1 1.4 1.3 1.3 1.2 2.9-.5 12.2-1.1 5.9-1.7 11.8-1.4 13 .6 2.3.9 2.4 11.9 2.4 14.9-.1 28.7-3.7 39.9-10.7 2.1-1.3 4-2.3 4.3-2.3 1.3 0 11.7-8.3 16.7-13.2 7.7-7.6 14.4-17 19-26.7 6.7-13.9 8.6-24.1 7.6-40.7-.8-14.5-3.8-22.6-12.4-34.4-5.4-7.4-19.9-17.4-28-19.4-10.4-2.5-16.7-3.5-22.6-3.6-5.5 0-7.1.4-9.2 2.2M50.5 17c-.3.6.2 1.3 1.2 1.6 22.1 7.2 49.8 25.2 62.9 40.9 7.3 8.7 10.9 15 13.8 24 5.3 16.4 2.5 34.8-8.1 51.7-2.6 4.2-2.7 4.8-1.3 4.8 1.8 0 13.8-10.6 23.7-21 12.7-13.1 23.5-29.9 27.7-43 2-6 3.6-22.9 2.4-25.7-.3-1-.7-3.2-.7-5-.1-4.6-4.8-14.8-10.4-22.6l-4.9-6.7H104c-34.4 0-53.1.4-53.5 1m1120.6 29.7c-.5 2.1-1.7 7.6-2.6 12.3-1 4.7-2.1 9.8-2.6 11.4s-.9 4.4-.9 6.2c0 3.2.2 3.4 3.5 3.4 3.8 0 5-1.7 6.2-8.8l.6-3.2h8.7c7.4 0 9.2-.3 12.1-2.3 1.9-1.2 3.8-3.3 4.4-4.5 1.1-2.4 3.5-3 3.5-.9 0 .7-.7 3.8-1.5 7-2.7 10.4.2 12.7 16 12.7 10 0 10.5-.1 12.1-2.5.8-1.3 1.3-2.9.9-3.5-.3-.5-4.2-1-8.8-1-9.2-.1-12.1-1.4-11.5-5.2.3-2.2.7-2.3 10.3-2.6 10.5-.3 12.5-1.1 12.5-5.4 0-1.6-1-1.8-10.1-1.8h-10l.3-3.8.3-3.7 11.1-.3c11.1-.3 11.2-.3 11.9-2.9.3-1.4.2-3-.3-3.5s-7.3-.7-15.3-.6l-14.4.3-1 6.5c-1.2 7.6-2.9 8.5-3.3 1.9-.5-7.6-2-8.3-17.7-8.7l-13.4-.4zm22.4 5.6c.9 3.3-1.1 7.6-3.8 8.2-1.3.4-4.6.5-7.3.3l-4.9-.3.3-4c.5-5.7 1.5-6.5 8.8-6.5 5.8 0 6.4.2 6.9 2.3m46.6-5.6c-2.4 9.2-5.3 26.4-4.7 28.6.9 3.6 4.7 4.7 16 4.7 8.7 0 10.5-.3 11.9-1.8 1-1 1.7-2.6 1.7-3.5 0-1.5-1.3-1.7-8.9-1.7-6.8 0-9.3-.4-10.5-1.6-1.8-1.7-1.9-2.4-1-4.8.5-1.3 2.4-1.6 10.5-1.6 9.5 0 9.9-.1 11.5-2.6 1-1.5 1.3-2.9.8-3.4s-5.2-1-10.4-1.2l-9.5-.3v-7l11.5-.5 11.5-.5.3-3.3.3-3.2h-30z"/><path d="M116 93c-.8.4-3.3 1.6-5.5 2.6-2.2.9-6.4 3.2-9.3 5-2.9 1.9-5.5 3.4-5.8 3.4s-4.2 2.9-8.7 6.4c-16.6 12.9-26 26-31.3 43.1-2.5 8.2-2.5 27.4-.1 36.8 3.9 14.7 11 28.3 23 43.8 9.9 12.8 36.1 38.7 43 42.6 2.7 1.5 98.7 1.9 98.7.4 0-.5-5.3-4.4-11.7-8.7-11.9-7.9-33.4-23.1-34.3-24.3-.3-.4-2.1-1.8-4-3.1-6.8-4.8-25.6-21.5-36.8-32.9-29.3-29.7-42.8-56.9-39.2-78.7 1.9-11.1 6.2-18.6 16.2-28.7 8.2-8.1 9.4-9.8 5.8-7.7m940.1 8.7c-.7 1.6-1.7 5-2.2 7.8-.4 2.7-1.6 8.1-2.4 12-2.8 12.2-2.9 14.1-.9 14.9 2.4.9 3.6-.6 5.4-6.7l1.6-5.2 9.4-.5c5.2-.3 10.4-1 11.5-1.5 3-1.3 6.2-5 6.9-8.2.4-1.5 1-3.8 1.3-5.1s0-3.5-.8-4.9c-2.3-4.2-5.8-5.3-17.7-5.3h-10.9zm22.4 4.3c2.5 2.1 1.8 6.8-1.4 10.1-2.7 2.7-3.5 2.9-10.7 2.9h-7.7l.6-5.1c1-8.4 2.2-9.4 10.6-9.3 4 .1 7.8.7 8.6 1.4m14.9 2.7c-3.3.6-5.9 4.3-7.1 9.8-.6 2.7-1.7 7.6-2.4 10.8-1.4 6.6-.5 8.6 2.9 6.8 1.4-.8 2.5-3.5 4.2-10.8 1.2-5.5 2.9-10.3 3.8-11.1.9-.6 3.5-1.2 5.8-1.2h4.2l-1.6 3.2c-2.5 5-2.9 14.4-.7 16.8 2.7 3 7.8 4 14.2 3 4.5-.8 6.5-1.7 9.4-4.6l3.6-3.6.7 2.6c.3 1.4 1.7 3.3 3.1 4.2 2.9 1.9 10.1 2.5 13.3 1.1 2.7-1.2 3.6-.5 2.8 2.1-1 2.9-5.7 4.4-12.3 4-5.6-.3-5.8-.2-5.8 2.2s.3 2.5 7 2.8c5.1.2 7.9-.2 10.5-1.5 4.5-2.3 8-7.6 8-12.2 0-5.6 1.6-7 2.3-2.1.3 2.4 1 4.7 1.6 5.3 1.4 1.4 3.8-.7 4.4-4.1 3.2-17.8 4-19.2 10-19.2 2.4 0 4.8-.5 5.5-1.2.9-.9 1.3-.8 1.7.5.6 1.3 1.8 1.5 7.4 1 5.4-.4 6.9-.2 8 1.1 2.6 3.2.6 4.6-6.4 4.6-4 0-7.8.6-9.6 1.6-2.8 1.4-5.9 6.5-5.9 9.7 0 4.5 7.4 7.3 14.9 5.6 3.1-.7 4.7-.6 5.7.2 1.1.9 1.9.8 3.4-.6 1.9-1.7 2.1-1.7 4.1.1 2.1 1.9 2.1 1.8 4-.4 1-1.3 2.1-4 2.4-6s1.3-6.2 2.3-9.2c1.6-5 2-5.6 5.4-6.4 3.1-.8 4.1-.6 5.8.9 1.2 1.1 1.8 2.5 1.5 3.4-.4.9-1.1 4.1-1.7 7.1-.5 3-1.2 6.8-1.5 8.3-.5 2.6-.3 2.8 2.2 2.5 3.4-.4 3.9-1.4 5.5-9.8 1.7-9.3 2.9-11.3 7.3-12.4 3.2-.8 4.1-.7 5.6 1 1.7 1.7 1.8 2.3.6 6.9-.8 2.7-1.7 7.1-2 9.7-.7 4.7-.6 4.8 1.9 4.8 1.5 0 2.9-.7 3.1-1.5 1.6-5.2 1.6-5.1 3.1-2.3s8.4 5.6 10.6 4.2c.6-.4 4-.7 7.6-.8l6.5-.1 1.8-7.5c3.6-14.8 2.3-18.6-6.7-19.6-7.2-.8-12.8.6-13.2 3.4-.3 2-.1 2.1 6 1.6 7-.6 10.7.9 9.5 4-.5 1.3-2.1 1.6-7.4 1.6-5 0-7.7.5-10.1 2-1.8 1.1-3.5 2-3.7 2-.3 0-.5-2.6-.5-5.9 0-3.8-.5-6.3-1.4-7-2.5-2.1-11-2.5-14.7-.7-3.3 1.5-3.7 1.5-6.8 0-2.5-1.2-4.7-1.5-8.9-1-6.2.7-7.6 1.6-9.9 6l-1.6 3.1-1.8-4.2c-1.6-3.8-2.1-4.2-6.5-4.9-2.7-.4-7.4-.2-10.8.4-4.4.8-6.3.8-7.3 0-.8-.7-3.5-.9-7.1-.5-6.7.7-9.7 3.4-10.7 9.5-1.3 7.7-2.2 8-3 1-1-9-2.5-10.3-11.9-10.2-7.7 0-13 2.2-13.9 5.6-.8 2.7-2.3 2.2-4.5-1.6-1.7-2.9-2.8-3.6-6.6-4.1-5.6-.9-11.5.1-13.9 2.3-1.6 1.4-1.9 1.4-3.3-.6-1.5-2.2-5.9-2.7-12-1.5m28.7 5.3c2.7 1.5 2.7 9.8-.1 13.2-2.9 3.8-7.3 5.3-11 3.8-3.5-1.5-4.4-3.7-3.5-9 1.2-6.9 8.8-11.1 14.6-8m30.1.7c2.2 2 2.3 4.5.2 9.9-1.6 4.1-6.1 7.4-10.2 7.4-2.6 0-6.2-3.7-6.2-6.3.1-3.7 3.8-10.7 6.2-11.7 3.6-1.4 8-1.1 10 .7m53 11.7c-.9 1.8-1.1 1.6-1.1-1.9 0-3.3.1-3.7 1-2.1.8 1.2.8 2.5.1 4m-7.5-1.7c.6 1.7-4 6.1-7.1 6.9-1.4.3-3.8.3-5.2 0-2-.5-2.5-1.2-2.2-3.4.2-1.6 1.3-3.1 2.8-3.9 3-1.6 11.2-1.3 11.7.4m72 0c.9 2.3-4.9 7.3-8.5 7.3-4.1 0-7-2.4-5.6-4.7 2.5-4.1 12.8-6.1 14.1-2.6m-1037.2 2.2c-14.4 2.7-26.3 15.7-30.6 33.1-1.7 7.1-1.7 21.7 0 30 4.5 21.5 18.8 32 43.6 32 9.9 0 16.3-.9 25.8-3.8 5.5-1.7 5.7-1.8 5.7-5.2-.1-3.8-1.5-11.8-2.2-12.5-.2-.3-2.8.4-5.7 1.5-2.9 1-8.7 2.4-12.8 3-14.2 2.2-25.6-1.7-30.6-10.4-2.6-4.5-5.3-15.8-4.3-17.5.5-.8 9.6-1.1 29.1-1.1 21.6 0 28.6-.3 29.2-1.3 1.4-2.1.7-18.9-1-23.7-3.7-10.8-9.2-17.6-17.3-21.4-4.6-2.2-7.5-2.8-15.3-3.1-5.3-.2-11.4 0-13.6.4m18 16.2c4.7 2.3 8.6 8 8.8 13l.2 4.4-17.5.2c-9.6.2-18.1-.1-18.9-.6-1.1-.7-.9-1.9 1.2-6.3 2.5-5.7 7.3-10.2 12.4-11.8 3.6-1.2 10.2-.7 13.8 1.1m87.4-16.2c-4.9 1-11.6 5.1-16.4 10-2.1 2.3-4.2 4.1-4.6 4.1s-.4-2.9-.2-6.4l.6-6.4-8.9-.4c-4.9-.2-9.2-.2-9.6 0-.5.2-.8 21-.8 46.3V220h19.8l.5-27.3c.5-31.5 1.1-34.1 9.6-43 8.8-9.3 20.9-8.9 25.5.7 1.4 2.9 1.6 8 1.6 36.5V220h20v-37.4c0-40.4-.1-40.9-5.7-48.4-3.9-5.2-9.4-7.4-19.3-7.8-4.7-.2-10.1 0-12.1.5m85.1 0c-13 2.9-23.2 13-28.6 28.1-2 5.8-2.9 24.6-1.6 33 2 12.8 9.7 24.7 18.9 29 13.3 6.3 31.8 6.7 50.7 1.2l5.8-1.7-.5-7.3c-.3-4.1-.8-7.7-1.1-8s-2.7 0-5.4.7c-17.5 4.5-26.6 4.8-34.6 1.2-8.1-3.6-13-11.6-13.8-22.6l-.3-4 28.5-.3c32.6-.3 31 .2 31-9.3 0-18.1-7.1-31.4-19.9-37.5-4.7-2.2-7.3-2.7-15.6-3-5.5-.2-11.6.1-13.5.5m16.2 15.3c5.2 1.5 10.4 7.4 11.3 12.8.5 3.1.4 4.5-.6 5.1-.8.5-9.1.9-18.5.9-13.7 0-17.3-.3-17.7-1.4-.9-2.3 3.9-11.2 7.4-13.8 6.2-4.6 11.4-5.6 18.1-3.6m85.7-15.2c-4.2 1.2-9.9 5.5-12.5 9.4-3.3 4.8-5.6 4.9-4.2.2.6-1.9.8-4.6.4-6-.6-2.6-.7-2.6-10.1-2.6H489v92h10c7.3 0 10-.3 10-1.3.1-.6 0-10.7 0-22.2-.1-28.2 2.6-40.6 10.2-47 3-2.6 9.4-4.7 13.1-4.5 4.7.4 4.7.4 4.7-9.5V126l-4.7.1c-2.7 0-6 .4-7.4.9m60.1-.1c-16.4 2.1-30.2 12-37 26.5-6.2 13.3-6.2 32.7 0 45.4 5.3 10.9 16.6 19.2 29.8 22.1 11.3 2.4 32.2.8 43.7-3.3l4-1.4.3-21.8c.2-16.7-.1-21.9-1-22.6-.7-.4-5-.8-9.5-.8H607v14.6c0 8.1-.5 15.4-1 16.5-1 1.7-2.2 1.9-11.1 1.9-8.7 0-10.8-.3-15.4-2.6-8.1-3.8-12.8-10.4-14.5-20.7-2.4-13.7 3.3-28 13.5-33.5 8.4-4.5 19.8-5.5 31-2.6 3.3.9 7.4 1.8 9.1 2.1 3.1.5 3.1.4 3.8-4.9.3-2.9.9-6.7 1.2-8.3.6-3.1.5-3.1-6.3-4.8-7.8-1.9-24.3-2.8-32.3-1.8m199 0c-6.5 1-15.8 3.7-17.5 5.1-1.4 1.1-.9 14.8.5 16.4.5.4 2.8-.1 5.2-1.2 7.4-3.4 12.7-4.6 21.1-4.6 5.8 0 9.1.5 11.4 1.7 4.6 2.4 7.6 7.2 7.7 12.1l.1 4.1-6 .2c-12.2.5-29.4 5.6-36 10.7-9.2 7.1-12.5 13.3-12.5 23.8 0 11.2 5.4 20.4 14.5 24.7 5.5 2.6 17.7 2.9 24.4.5 5.4-1.8 12.6-6.7 14.7-10 2.5-3.8 3.4-2.9 3.4 3.6v6h9.4c5.5 0 9.6-.4 9.8-1s0-5.9-.4-11.8-.7-22.2-.6-36.2c.2-24.4.1-25.7-2-29.6-5.6-10.8-12.7-14.4-29.7-14.9-6.6-.2-14.5 0-17.5.4m28.7 53.5c-1.2 11.5-10.1 23.6-18.4 25.1-5.5.9-11.7-.9-13.7-4-.9-1.4-1.9-4.4-2.2-6.8-1.7-12 9-19.1 29.5-19.6l5.4-.1zm-166.6-52.6c-.8.3-1.1 15.1-1.1 46.3v46l9.8-.3 9.7-.3.3-45.3c.2-35.7 0-45.3-1-45.7-1.7-.5-16.4-1.1-17.7-.7m57.4 2c-6.6 2.2-8.8 3.6-13.5 8.2-6.8 6.8-8.6 12-6.9 20.2 1.5 7 3.1 9.8 7.4 13.6 3.4 3 15.2 9.2 17.5 9.2.6 0 1.8.4 2.8 1 .9.5 3.7 1.8 6.2 2.9 10.9 4.8 14 13.5 6.1 17.6-5.7 2.9-24.8 1.5-33.4-2.6-1.7-.7-3.1-.9-3.7-.3-.5.5-1.2 4.5-1.6 9l-.7 8 4.4 1.6c2.4.9 8.5 2.1 13.4 2.7 17.3 2.1 34.1-2.3 41.8-10.8 4.5-4.9 5.2-7.5 5.1-17.1 0-5.9-.5-8.3-2.3-11.2-3.2-5.2-10.9-10.6-21.1-14.6-14.3-5.6-21.4-11-20.8-16 .2-1.4 1.8-3.7 3.9-5.4 3.3-2.7 4.5-3 13-3.4 6.6-.4 11-.1 14.9.9 3 .9 5.8 1.3 6.2 1.1.5-.3.8-3.8.8-7.8 0-6.8-.2-7.4-2.5-8.4-1.6-.7-7.8-1.2-15.8-1.1-11.6 0-14.2.3-21.2 2.7m324.6 24.1c-.7.5-1.7 3-2.2 5.7-1.2 6.1-2.1 7.1-5.4 5.6-3.8-1.7-8-1.5-12.8.8-5.3 2.6-7 5-8.6 12.2-1.1 5-1 6.2.4 9.2 2.1 4.4 6.7 6.1 13.9 5.2 6.1-.7 9.5-2.9 11.9-7.9 2-4 3.7-4.1 3.7-.2 0 1.3 1.1 3.7 2.4 5.2 2.3 2.6 2.9 2.8 10.5 2.8 6.1 0 8.4-.4 9.7-1.7 2.7-2.6.8-3.9-4.7-3.2-5.3.7-10.4-.8-11.3-3.3-1.1-2.8.5-3.3 9.5-3.3 10.8 0 11.9-.7 11.9-7.9 0-4.7-.3-5.3-3.2-7.1-5.7-3.4-14.7-2.2-20 2.8-1.6 1.4-2.8 3.6-2.8 4.8 0 1.3-.5 2.6-1.1 3-1.3.8-.9-3.2 1.2-13.6.6-3 1.2-6.4 1.2-7.5.2-2.1-2-3-4.2-1.6m-8.2 16.7c2.1 1.5 2.3 2.2 1.8 6.7-1 8.2-7.1 12.4-13.8 9.7-2.5-1.1-2.9-1.8-2.9-5.2 0-9.7 8.2-15.9 14.9-11.2m30 .3c1.7 1.3 2.2 2.3 1.6 3.9-.6 2-1.3 2.2-7.6 2.2s-6.9-.2-6.9-2c0-2.3 5.3-6 8.5-6 1.1 0 3.1.9 4.4 1.9m62-15.6c-1.9 1.2-3.5 3.3-3.7 4.5s-1.7 3.1-3.3 4.2c-3.3 2.4-3.6 3.8-1.2 5.5 1.7 1.3 1.4 4.2-1.8 16.6-1.3 5.2-1.2 5.9 1.4 5.9 3 0 4.7-1.8 4.8-5 0-1.4.8-5.7 1.8-9.5l1.9-7h5.3c4.8 0 5.4.2 5.1 2-1.4 8.6-2.1 12.3-3 14.5-1.2 3.4-.5 5 2.3 5 3.1 0 3.5-.8 4.3-8.3.4-3.4 1.2-6.2 1.7-6.2.6 0 1.2 2.7 1.5 6 .5 5.6.7 6.1 4 7.8 2.8 1.5 4.7 1.7 9.5 1.1 3.3-.3 7.9-.6 10.1-.5 4.1.1 4.2.1 5.8-4.8.9-2.8 1.6-6.8 1.6-9 0-2.3.4-4.1.9-4.1s.8 3.1.7 7c-.1 6 .2 7.2 2.2 9.2s3.3 2.3 10.1 2.3c5.2 0 8.4-.5 9.5-1.4 3-2.5 1.2-3.6-6.2-3.6-7.6 0-11.1-1.7-9.9-4.9.5-1.3 2.4-1.6 10.1-1.6 8.4 0 9.7-.2 10.6-1.9 1.4-2.7 1.3-9.4-.2-11.3-4.2-5.1-17.9-4.3-22.1 1.3-2.8 3.8-3.7 3.6-3.7-.6 0-3.9-2.1-5.5-4.5-3.5-1.1.9-2.2.9-4.6.1-4-1.4-9.5-1.3-13.6.2-4 1.5-8.3 5.2-8.3 7.2 0 .8-.5 1.5-1.1 1.5s-.9-1.6-.8-3.8c.4-5.7-.5-6.4-7.5-6.2-8.2.3-8.6.2-8.6-1.5 0-2.5 5.8-4.8 10.4-4.1 2.8.5 4.8.2 6.1-.8 6.2-4.5-10.9-6.8-17.6-2.3m41.4 15.4c1.9.5 1.8 3.7-.4 12.5-.9 3.5-1 3.6-6.9 4.3-6.8.8-10.5-.8-11.5-4.8-1.1-4.1 3.1-11.3 7.5-13 1.5-.6 7.8 0 11.3 1m27.2-.5c2 .9 2.5 1.8 2.3 3.7-.3 2.5-.6 2.6-6.8 2.6-5.3 0-6.5-.3-6.8-1.7-.2-1.1.9-2.5 3-3.8 3.8-2.3 4.8-2.4 8.3-.8"/><path d="M1159 155.6c-1.1 1.2-1.1 1.8.2 3 1.2 1.3 2 1.4 3.7.5 2.5-1.4 2.8-3.6.5-4.5s-3-.8-4.4 1m89.8-.5c-2.4 1.3-2.3 2.6.3 4 1.7.9 2.5.8 3.7-.4 1.6-1.7 1-4.7-1-4.7-.7 0-2.1.5-3 1.1m-173.8.9c-1 .6-1.9 3.7-2.9 9.7-.5 2.6-1.6 8.5-2.6 13-1.6 7.7-1.6 8.5-.1 10.8 1.7 2.5 1.8 2.6 13.9 2.3 11.7-.3 12.2-.4 12.5-2.5.3-2.2 0-2.2-10-2.5l-10.3-.3-.3-3.6c-.2-2.1.2-4 1.1-4.7.7-.6 5.7-1.3 11.1-1.4 8.2-.3 10.1-.6 11-2.1 1.8-2.8-.9-3.7-10.5-3.6-4.8.1-9.1-.1-9.7-.5-.7-.4-.7-1.9.2-4.9l1.2-4.2 9.4-.2c12.3-.4 14.2-.8 13.8-3.4-.3-1.8-1.2-2-13.6-2.2-7.4-.1-13.7 0-14.2.3m101 .7c-3.7 2.6-6 4.7-6 5.4 0 1.7 4 1.5 5.6-.2 2.1-2.3 4.7-2.4 6.4-.4 1.4 1.7 3.6 2 4.4.6.9-1.3-4.3-7.1-6.3-7.1-.9 0-2.8.8-4.1 1.7m23.2 8.6c-4.6 1.4-8.8 7.1-9.6 12.9-.3 2.7-.9 6.8-1.2 9.3-.6 4.3-.5 4.5 1.9 4.5 2.8 0 3.9-2.4 5.2-11 1-6.3 2.9-9.5 6.5-11 3.8-1.6 7.9-.4 9 2.5.4 1.1.1 4.9-.7 8.5-2 9.6-2 10.4 0 10.8 2.3.5 4.7-1.5 4.7-3.8 0-1 .7-2.3 1.5-3 1.2-1 1.5-1 1.5.3 0 .9 1.1 2.8 2.4 4.3 2.5 3 5.3 3.3 20 2.3l6-.4 1.1-5 1.1-5 .8 4.7c.7 4.4 1 4.8 4.6 5.9 2.4.7 5.6.9 8.7.4 2.6-.4 6.4-.8 8.3-.9 3.3-.1 3.4-.2 4.8-6.1.7-3.3 1.6-8.6 1.9-11.7.5-5.6.5-5.7-2.8-7.7-6-3.7-18.9-2.2-18.9 2.1 0 1.8.4 1.9 5.9 1.3 4.1-.5 6.5-.3 8 .7 2 1.2 3 4.7 1.4 4.9-.5 0-4.3.2-8.6.4-6.6.2-8.2.6-9.9 2.5-3 3.2-3.8.9-2.2-6.3 1.7-6.9.9-8.8-2.9-6.8-1.7.9-3 .9-5.1.2-6.4-2.5-16.3-.5-20.2 4.2-2 2.3-2.7 2.7-3.9 1.7-.8-.6-1.7-2-2-3-1.1-3.6-10.2-5-17.3-2.7m44.9 5.9c.4.6.1 3.3-.7 6.2-.7 2.8-1.4 6.2-1.6 7.5-.3 2.1-.9 2.4-6.6 2.8-8.1.5-11.2-1.2-11.2-6.2 0-4.8 2.7-10 5.9-11.3 2.9-1.2 13.3-.4 14.2 1m-26.4 11c-.3.7-.5.2-.5-1.2s.2-1.9.5-1.3c.2.7.2 1.9 0 2.5m50.4-2.2c3.2 0 2.3 3.8-1.3 6-4.9 3-11.8 2.1-11.8-1.4 0-2.9 6.1-6 9.8-5 .8.2 2.2.4 3.3.4M36.6 185.2c-4.5 14.6-4.7 45.3-.3 61.8 2.5 9.6 3 11.2 7.3 20.8 1.3 2.9 2.4 5.6 2.4 6.1 0 .4.8 1.5 1.8 2.4 1.7 1.5 5.5 1.7 34.5 1.7 25.7 0 32.5-.3 32.1-1.2-.2-.7-3.2-2.8-6.6-4.7-33.6-18.5-64.8-56.3-67.4-81.7-.5-4.5-1.1-6.4-2.1-6.4-.7 0-1.5.6-1.7 1.2m1395.2 4c-1 1-1.8 3.3-1.8 5 0 1.8-.5 5.3-1.1 7.8s-1.5 7-1.9 10c-.8 5.4-2.7 16.3-3.6 20.7-.2 1.3-.9 2.3-1.4 2.3-.9 0-1.8-2.7-4-13.5-.7-3.3-1.8-8.5-2.5-11.5s-1.8-8.1-2.5-11.2c-1.9-8.6-4.3-10.3-13.6-10.2-6.8.1-7.8.4-10.6 3-3.3 3.2-15.8 21.5-15.8 23.3 0 .7 4.1 1.1 12.4 1.1 7.2 0 12.7.4 13.1 1 .3.5-.1 2-.9 3.2-.9 1.2-1.6 3-1.6 4 0 3.8-3.7 4.8-18.6 4.8h-14.1l-8.1 12.3c-4.5 6.8-8.2 12.9-8.2 13.5 0 .8 3.1 1.2 10.3 1.2h10.3l2.4-4.3c4.3-7.9 3.9-7.7 18.2-7.7h12.9l1.5 3.5c.7 1.9 1.4 4.5 1.4 5.8 0 2.3.3 2.4 10.3 2.9 5.6.3 13.1.2 16.7-.1l6.4-.6 1.2-6.5c3.7-20.6 4.4-24.8 4.4-27.3 0-2.7.7-3.3 2.5-1.9.9.6 6.5 9.9 13.3 22.2 1.4 2.5 3.6 6.2 4.9 8.2 1.2 2.1 2.3 4.2 2.3 4.8 0 .7 3.4 1 9.7.8l9.7-.3 1.7-10c3.8-21.5 5.8-32.7 8.4-46.9 2.1-11.1 1.9-11.4-8.4-10.7-7.3.6-7.5.7-8.2 3.6-1.1 4.9-2.7 13.3-4.6 24.2-1 5.7-2 10.3-2.3 10.3-.6 0-4.8-6.9-9.5-15.5-1.6-2.8-4.2-7.3-5.9-10-1.7-2.8-4-6.7-5.1-8.7l-1.9-3.7-8-.3c-6.7-.2-8.4 0-9.8 1.4m70.1-.6c-1 1.2-1.8 5.1-5.4 25.9-1.4 8.2-3.2 18.7-4.1 23.3-1.7 9.2-1.2 12.2 3 16.1 2.2 2.1 3 2.1 27.7 1.9l25.4-.3 1.3-5.9c.8-3.8.9-6.3.3-6.9s-8.2-.9-18.3-.8c-20.6.2-21.5-.1-20.4-7.2l.7-4.7 20.2-.2 20.2-.3 1.1-3.5c.6-1.9 1.4-5.2 1.8-7.3l.7-3.7H1536c-22.7 0-22 .2-19.8-7.7l1.4-4.8 20.1-.3 20.1-.2 1.1-4.5c.6-2.4 1.1-5.6 1.1-7.2v-2.8h-28.6c-19 0-28.9.4-29.5 1.1m64.2-.5c-1.7.7-1.8 1-6.7 28.9-.8 4.7-2 10.7-2.6 13.4-.6 2.8-1.1 8.5-1.2 12.9-.1 7.4.1 8 2.7 10.3l2.8 2.4h50.7l.5-2.3c.3-1.2.9-4.3 1.2-7l.7-4.7h-18.4c-21.8 0-22.7-.3-21.2-7.1l.9-4.4 20.5-.5 20.4-.5 1.3-6c.7-3.3 1.2-6.6 1.3-7.3 0-.9-4.6-1.2-19.9-1.2-11 0-20.2-.3-20.4-.8-.6-1 .8-10 1.7-11 .4-.4 9.8-.9 20.9-1.2l20.2-.5.9-6.3c.5-3.4.7-6.5.4-6.8-.8-.7-54.6-1-56.7-.3m61.8 1.6c-.5 1.3-1.3 5.3-1.9 9-.6 3.8-1.5 8.6-2 10.8s-1.6 8.5-2.5 14-2.1 12.4-2.7 15.3c-1.5 6.9.2 12.4 4.7 15.2 3 1.8 5.1 2 26.7 2h23.6l1-2.8c1.8-4.7 2.4-10 1.1-10.8-.6-.3-8.2-.6-16.9-.5-8.6.1-16.9-.1-18.4-.5-2.7-.6-2.8-.9-2.3-5.8.4-4.7.8-7.5 3.7-22.1 2.8-14.4 4.3-24.5 3.7-25.1-.3-.3-4.3-.7-8.8-.8-7.6-.1-8.2.1-9 2.1m-403.1 21.4c-3.5 2-1.6 5.6 2.3 4.4 1.3-.5 1.9-1.4 1.7-2.8-.4-2.5-1.7-3-4-1.6m-33.8.6c-2.8 1-5 3.6-5 5.9 0 1.8-.8 2.4-5 3.4-6.8 1.6-10.4 6-11.8 14.3-.8 5.3-.7 6.6.7 9.2 1.9 3.4 4.4 4.3 12.1 4.4 6 .1 10.5-1.6 10.5-3.9 0-1.2-1.2-1.4-6-1.2-7.7.4-11.8-1-11.3-4.1.3-2.1.8-2.2 9.7-2.5 5.2-.1 10.1-.8 10.8-1.4 1.6-1.3 1.7-8.2.2-10.9-.6-1.1-2.9-2.8-5.1-3.8l-4.1-1.7 4.6-2.8c2.6-1.5 4.7-3.1 4.7-3.5 0-.7-2.7-2.3-3.3-2-.1 0-.9.3-1.7.6m-2.1 15.2c1.4 1 2.2 2.5 1.9 3.7-.3 1.6-1.3 1.9-6.7 2.2-7.5.4-9.3-.8-6.5-3.9 3.6-4.1 7.7-4.8 11.3-2m-151.2-6.2c-1 4.9-2.2 10.4-2.7 12.3-1.9 7.6-1.9 10.9 0 13.2 1.8 2.2 2.5 2.3 17.4 2.4 8.6.1 15.9-.3 16.2-.8s1.4-4.8 2.4-9.6c2.1-9.9 4-12.2 10-12.2 5.6 0 6.5 1.6 5 9.7-.7 3.8-1.6 7.8-2 8.9-1 2.5.5 4.4 3.2 4.4 2 0 2.3-.6 3.3-6.5l.7-4 1.8 3.6c3 5.7 4.4 6.4 13.7 6.4 6.3 0 8.6-.4 9.3-1.5 1.7-2.7.4-3.5-5-3.2-6.7.5-9.7-.3-11.1-2.9-1.7-3.2.4-4 9.9-3.7 10.5.3 12.3-1.1 11.3-8.7-.5-4.5-1-5.2-4.1-6.7-4.1-2-8.2-2.1-12.8-.5-3.8 1.4-9.2 6.3-9.2 8.3 0 .8-.4 1.4-1 1.4-.5 0-1-1.6-1-3.5 0-8.5-15-10.2-23.2-2.7-1.6 1.4-2.8 3.3-2.8 4.1 0 .9-.7 3.4-1.5 5.6s-1.4 5.5-1.5 7.2c0 3.2-1.3 4.3-2.5 2.3-.3-.6-5-1-10.5-1-10.9 0-11.3-.3-10.3-6.4l.6-3.6h10.1c10.8 0 13-.7 12.4-3.6-.3-1.7-1.5-1.9-10.6-2.2l-10.3-.3.6-3.7c.4-2 .8-4.3 1-5 .3-.8 3.5-1.2 11.3-1.2 8.4 0 11.2-.3 12.2-1.5 2.4-2.9 0-3.5-14.3-3.5h-14.2zm76.3 6.7c3.8 4.1 2.2 5.6-6 5.6-5.2 0-7-.3-7-1.3 0-2.5 5.2-5.9 10.1-6.6.3-.1 1.6 1 2.9 2.3"/><path d="M1205.4 216.5c-.3 1.4-2 3.5-3.6 4.7l-3 2.1 2.1 1.6c2 1.6 2.1 1.8.6 8.6-2.2 10.6-2 13.4 1.1 14.5 2.4.9 18 .8 18.8-.1.9-1.2 2.6-7.6 2.6-10.3 0-1.7.5-3.8 1-4.6.7-1.1 1 .3 1 4.6 0 9.4 1.6 10.9 12 10.9 6.5 0 8.4-.3 9.4-1.7 1.2-1.6 1.4-1.6 2.9-.1 1.3 1.3 3.9 1.7 12.2 1.8 5.7.1 10.8-.1 11.3-.4 1-.8 3.3-11.2 3.9-18.3.5-5.3.4-5.7-2.3-7.5-3.4-2.2-15.3-2.5-17.8-.4q-4.95 4.2 4.2 3.9c7.1-.2 10.2.8 10.2 3.3 0 1.6-.7 1.9-5.4 1.9-9.4 0-15.9 3.5-17.4 9.3-.7 2.9-1.1 3-7.1 3.4-5 .4-6.7.1-8.2-1.3-4-3.6-1.5-13 4.2-15.9 2.5-1.3 4-1.4 7.7-.6 5 1.1 6.6.4 6-2.5-.2-1.4-1.7-2.2-5-2.8-6.2-1.2-12.2.7-16.6 5.2-3.3 3.5-4.2 3.1-3.9-1.8.2-2-.3-2.5-2.3-2.5-2.1 0-2.6.7-3.8 6-.7 3.3-1.8 8.2-2.5 11l-1.2 5-4.8.3c-6 .4-6.4-.5-4.2-10.2l1.7-7.5 4.6-.3c3.9-.3 4.7-.6 4.7-2.3 0-1.6-.8-2.1-3.7-2.3-3.6-.3-3.8-.5-3.8-3.8 0-3-.3-3.4-2.5-3.4-1.8 0-2.6.7-3.1 2.5m64.6 21.4c0 3.2-4.8 6.2-9.3 5.9-9.6-.7-5.9-7.7 4.1-7.8 4.5 0 5.2.3 5.2 1.9m-140-16.3c-4.8 1.9-5.7 3.8-8 15.6-2.1 10.5-1.8 12.2 1.9 11.5 1.4-.2 5-12.2 5.1-16.9 0-3.4 4.2-6.8 8.5-6.8 4.2 0 4.7.7 3 4.1-1.9 3.6-2 14.9-.1 17.4 1.1 1.5 2.7 1.9 7.7 1.9 3.5.1 7.4-.3 8.7-.7 3-1.1 2.9 1.3-.2 4.2-2.1 2-3.7 2.4-9.8 2.5-6.5.1-7.3.4-7.3 2.1 0 3 6.1 4.2 13.2 2.7 8.4-1.7 9.8-3.4 13.7-16.2 1.8-6.1 1.7-16.9-.2-19.3-1.8-2.2-8.7-4-12.4-3.3-1.9.3-5.2 1.5-7.3 2.6-4.8 2.4-4.5 2.4-4.5.1 0-3.4-5.8-4.1-12-1.5m29.1 5.1c2.3 1.4 2.9 2.4 2.9 5.1 0 8.8-8.2 14.9-15.1 11.2-4.2-2.3-1.6-13.5 3.9-16.4 3.5-2 4.8-2 8.3.1M1350 265c0 1.1-.4 2-.9 2s-1.4 1.4-2 3.1c-.9 2.6-.8 3 .4 2.5.8-.3 2.2-.9 3-1.2.9-.4 1.7.1 2.1 1 .3.9 1 1.6 1.5 1.6 1.2 0 1.1-2.5-.3-7.1-1.2-4.1-3.8-5.4-3.8-1.9m22.3-.8c-3.5 4.8-3.2 9.8.7 9.8 1.5 0 2-1 2.5-4.4.9-5.8-.8-8.6-3.2-5.4m52.5 3.5c-.5 5.7-.1 6.5 1.8 3.8 1.3-1.7 1.6-1.8 2.4-.5.5.8 1 1.8 1 2.2 0 1.9 3 .6 3-1.2s-5.8-9-7.3-9c-.3 0-.7 2.1-.9 4.7m89.8-3.2c-.3.8-1.5 1.5-2.6 1.5-2.5 0-4.2 3.7-2.8 6.2 1.2 2.4 5.5 2.3 6.8-.1 1.2-2.4 1.3-7.8.1-8.5-.5-.3-1.1.1-1.5.9m-.1 5.5c.4.6-.5 1-1.9 1s-2.6-.5-2.6-1c0-.6.9-1 1.9-1 1.1 0 2.3.4 2.6 1m23.4-5.8c0 .7-.2 3.2-.5 5.5-.4 4-.2 4.3 2.1 4.3 2.7 0 3.2-.9 1.4-2.7-.8-.8-.7-1.6.2-3 .7-1.1.9-2.8.6-3.7-.7-1.9-3.7-2.2-3.8-.4m74.8-.5c-1.2 1.2-.7 5.3.6 5.3 2.3 0 3.7-2.1 2.6-4.2-1-1.9-2.1-2.3-3.2-1.1m10.2.3c0 .8-.2 3.2-.4 5.2-.2 2.1 0 3.8.5 3.8 1.4 0 2.4-8 1.1-9.3-.8-.8-1.1-.7-1.2.3m-190.5 1.1c-.3.6-.1 1.6.5 2.2.8.8 1.1.5 1.1-1.1 0-2.4-.5-2.8-1.6-1.1m64.6 3.9c0 2.7.5 5 1 5 .6 0 1-2.3 1-5 0-2.8-.4-5-1-5-.5 0-1 2.2-1 5m132.7-3.2c-1 1-1.7 3.3-1.7 5 0 2.5.4 3.2 2 3.2 1.1 0 2.7-1.1 3.6-2.5 1.4-2.1 1.5-3.1.6-5-1.4-3-2.3-3.1-4.5-.7m9-.2c-1.1 1.2-.8 5.9.5 7.2 2 2 2.4 1.4 2.3-3-.1-3.9-1.3-5.7-2.8-4.2m-279.7 2.8c-1.6 3.1-.8 5.3 2.5 6.8 3.1 1.4 4.8-.3 3.9-3.8-.3-1.2-.1-2.5.5-2.9 1.8-1.1.2-2.5-2.8-2.5-1.9 0-3.2.8-4.1 2.4m5 1.5c0 1.1-2.6 2.2-3.4 1.4-1.2-1.2-.5-2.3 1.4-2.3 1.1 0 2 .4 2 .9m17-1.4c0 2.3.2 2.4 2 1.5 2.5-1.3 4.1-.5 3.3 1.7-.4 1.1-.3 1.4.5.9 3-1.8.5-6.6-3.5-6.6-1.8 0-2.3.6-2.3 2.5m10.5.5c-.8 3.6 0 5 2.6 5 2.3 0 2.6-1.8.4-2.6-2.1-.8-1.9-2.1.5-2.9s1.7-2.5-1-2.5c-1.2 0-2.1 1-2.5 3m10.3-2.3c-1.1 1.9-1.8 6.3-1 6.3 1.4 0 3.4-5.2 2.4-6.2-.6-.6-1.2-.6-1.4-.1m5.2 1.8c-1.4 3.7-.3 5.5 3.6 5.5 3.3 0 3.4-.1 3.4-4 0-3.8-.2-4-3-4-2.3 0-3.3.6-4 2.5m4.5 1.3c0 2-1.9 1.8-2.3-.2-.3-1.2.1-1.7 1-1.4.7.3 1.3 1 1.3 1.6m26.4-1.1c-1.5 3.9-.5 5.5 3.3 5.1 3-.3 3.3-.6 3.6-4.1s.2-3.7-2.8-3.7c-2.4 0-3.3.6-4.1 2.7m4.7.4c.3.6.2 1.5-.2 1.9-1.2 1.2-3.8-.5-3-1.9.9-1.4 2.3-1.4 3.2 0m6.3-.7c-1.6 3.3-.5 5.6 2.6 5.6 3 0 3.3-1.6.4-2.3-2.3-.6-2.1-3.2.2-3.2 2.4 0 2.5-2 .2-2.3-1.6-.2-2.6.4-3.4 2.2m9.1 1.5c0 2.3.5 4.1 1 4.1.6 0 1-1.4 1-3 0-3.7 0-3.9-1.1-4.6-.5-.3-.9 1.3-.9 3.5m6.4-1.8c-2.3 2.5-.9 5.3 2.9 5.7 2.1.3 2.8-.2 3.3-2.2 1.3-5.4-2.5-7.6-6.2-3.5m4.3 2.2c-.6 2-2.7 1.9-2.7-.2 0-1.4.5-1.9 1.5-1.4.9.3 1.4 1 1.2 1.6m6.7-3.2c-.8 1.3 1.3 2.9 3.9 2.9 1 0 1.7-.8 1.7-2 0-1.5-.7-2-2.4-2-1.4 0-2.8.5-3.2 1.1m10.7 1.1c-1.2 3.1.4 5.8 3.4 5.8 2.8 0 4.9-3.1 4-6s-6.3-2.7-7.4.2m4.9 1.8c0 .5-.9 1-2 1s-2-.5-2-1c0-.6.9-1 2-1s2 .4 2 1m30.2-2.8c-1.6 1.6-1.5 5.7.2 6.4 2.7 1 5.7-1.5 5.4-4.4-.3-3-3.5-4.1-5.6-2m26.8 2.2c0 2 .5 3.6 1 3.6.6 0 1-.9 1-2s.7-2 1.5-2 1.5.9 1.5 2 .5 2 1.1 2 .9-1.4.7-3.3c-.3-2.8-.7-3.2-3.5-3.5-3.2-.3-3.3-.2-3.3 3.2m11.6-1.8c-1.8 1.7-1.9 2.4-1 4.8s4.1 1.9 5.9-.8c2.9-4.4-1.2-7.7-4.9-4m10.1-.9c-1.1 1-.8 7.3.3 7.3.6 0 1-1.1 1-2.5s.5-2.5 1-2.5c.6 0 1-.7 1-1.5 0-1.5-2.1-2.1-3.3-.8m6.7 1.8c-.7 2.6 1.2 8.5 2.7 8.5 2.3 0 5-4.2 4.7-7.3-.3-2.8-.7-3.2-3.5-3.5s-3.3.1-3.9 2.3m4.6 2.9c-1.3 1.3-3.5-.7-2.5-2.4.5-.8 1.1-.8 2.1.1 1 .8 1.2 1.5.4 2.3m13.7-4.7c-1.4 1.3-.6 2.3 1.7 2.3 1.4 0 2.8.5 3.2 1.1.5.8-.4 1-3 .7-3.8-.4-4.4 0-2.4 2 2.2 2.2 5.8 1.4 6.9-1.5.5-1.4.8-3.2.5-4-.6-1.3-5.7-1.8-6.9-.6m52 0c-1.1 1-.8 7.3.3 7.3.6 0 1-.9 1-1.9 0-1.1.5-2.3 1-2.6 1.5-.9 1.2-3.5-.3-3.5-.8 0-1.7.3-2 .7m6.9.9c-1 2.7-.7 5.6.7 5.2 1.4-.5 2.3-6.8.9-6.8-.6 0-1.3.7-1.6 1.6m6.4-.2c-1.8 2.3-.8 6.1 1.8 6.4 2.5.4 3-1.3.7-2.2-2.1-.8-1.9-2.3.5-2.9 1.1-.3 2-1 2-1.6 0-1.6-3.6-1.3-5 .3m9.7-.7c-.4.3-.7 2.1-.7 4 0 3.1.2 3.3 3.5 3.3 2.9 0 3.6-.4 4.1-2.5.9-3.7-.2-5.5-3.4-5.5-1.6 0-3.2.3-3.5.7m4.3 3.9c0 1.6-1.6 1.9-2.5.4-.8-1.3.4-3.2 1.6-2.5.5.4.9 1.3.9 2.1m-86.4-.8c-.4 1.8-.5 3.6-.2 3.9 1.1 1.2 1.7-.5 1.4-3.9l-.3-3.3zm-113.6 1.6c0 .9.5 1.6 1 1.6.6 0 1-.4 1-.9 0-.6-.4-1.3-1-1.6-.5-.3-1 .1-1 .9m137 .5c0 1.6.6 2.1 2.5 2.1 1.6 0 2.5-.6 2.5-1.5 0-.8-.4-1.5-.9-1.5s-1.6-.3-2.5-.6c-1.2-.4-1.6 0-1.6 1.5m-132 .1c0 .5.5 1 1 1 .6 0 1-.5 1-1 0-.6-.4-1-1-1-.5 0-1 .4-1 1"/></svg>